<svg xmlns="http://www.w3.org/2000/svg" viewBox="0 0 288 38"><path d="M75.8 5h-9.6v10.2h7v5.4h-7v17h-5.7v-38h15.3zM88.6 37.6a2.9 2.9 0 0 1-.2-.9 2 2 0 0 0-.1-.7 2 2 0 0 0-.1-.7v-.9c-2.1 2.4-4.1 3.6-5.9 3.6a3.9 3.9 0 0 1-3.4-1.8 8.7 8.7 0 0 1-1.2-4.9 11.5 11.5 0 0 1 .4-3.3 10 10 0 0 1 1.6-2.8 18.1 18.1 0 0 1 3.2-2.7c1.4-1 3.1-2 5.1-3.2v-1.8a7 7 0 0 0-.4-3.1 1.8 1.8 0 0 0-1.7-.8 1.9 1.9 0 0 0-1.7.9 6.6 6.6 0 0 0-.7 3h-5.2a10 10 0 0 1 2.4-6.3 7.5 7.5 0 0 1 5.7-2.3 8.3 8.3 0 0 1 3.2.6 5.7 5.7 0 0 1 2.2 1.9 5.3 5.3 0 0 1 1.1 2.4 21.2 21.2 0 0 1 .3 4.2v9.4c0 1.6 0 2.9.1 3.9v2.6a9 9 0 0 0 .2 1.8 13.7 13.7 0 0 0 .2 1.9zM88 23.2a15.2 15.2 0 0 0-3.9 3.4 6.7 6.7 0 0 0-1.1 3.7 4.3 4.3 0 0 0 .4 2.2 1.7 1.7 0 0 0 1.3.8c1.2 0 2.3-.9 3.3-2.6zM103.1 12.4a16.3 16.3 0 0 1 3-2.7 5.7 5.7 0 0 1 2.8-.8 3.4 3.4 0 0 1 2.9 1.3 5.6 5.6 0 0 1 .7 1.8 26.7 26.7 0 0 1 .2 3.6v22h-5.2V16.8a6.7 6.7 0 0 0-.1-1.7 1.5 1.5 0 0 0-.1-.7 1 1 0 0 0-1-.8c-1 0-2.1.8-3.2 2.4v21.6h-5.2V9.3h5.2zM128.3 14h-4.2v14a16.3 16.3 0 0 0 .1 2.4 5.4 5.4 0 0 0 .4 1.5 1.3 1.3 0 0 0 .9.7 2.5 2.5 0 0 0 1.3.2 4.4 4.4 0 0 0 1.5-.2v4.9l-1.9.4h-1.7a5.4 5.4 0 0 1-4.6-2.1l-.6-1c-.1-.3-.3-.7-.4-1.1s-.1-1-.2-1.5V14h-3.2V9.3h3.2V1.5h5.2v7.8h4.2zM142.3 37.6a2.9 2.9 0 0 1-.2-.9 2 2 0 0 0-.1-.7 2 2 0 0 0-.1-.7 3.4 3.4 0 0 0-.1-.9c-2 2.4-4 3.6-5.8 3.6a3.9 3.9 0 0 1-3.4-1.8 8.7 8.7 0 0 1-1.2-4.9 11.5 11.5 0 0 1 .4-3.3 10 10 0 0 1 1.6-2.8 18.1 18.1 0 0 1 3.2-2.7 59.2 59.2 0 0 1 5.1-3.2v-1.8a7 7 0 0 0-.4-3.1 1.8 1.8 0 0 0-1.7-.8 1.8 1.8 0 0 0-1.7.9 6.6 6.6 0 0 0-.7 3H132a10 10 0 0 1 2.4-6.3 7.5 7.5 0 0 1 5.7-2.3 8.3 8.3 0 0 1 3.2.6 5.7 5.7 0 0 1 2.2 1.9 5.3 5.3 0 0 1 1.1 2.4 21.2 21.2 0 0 1 .3 4.2v13.3a25.4 25.4 0 0 1 .1 2.6c0 .7.1 1.3.1 1.8l.3 1.9zm-.6-14.4a15.2 15.2 0 0 0-3.9 3.4 6 6 0 0 0-1.1 3.7 4.3 4.3 0 0 0 .4 2.2 1.7 1.7 0 0 0 1.3.8c1.2 0 2.3-.9 3.3-2.6zM161.1 17.2a7.2 7.2 0 0 0-1-2.8 2.5 2.5 0 0 0-1.8-.8 2.4 2.4 0 0 0-2.4 2.5 3.1 3.1 0 0 0 .2 1.1 3 3 0 0 0 .6 1.1l1.1 1.2 1.9 1.5 3.3 2.7a13.3 13.3 0 0 1 2 2.2 7.2 7.2 0 0 1 1 2.2 9.4 9.4 0 0 1 .2 2.5 7 7 0 0 1-2.1 5.4 7.6 7.6 0 0 1-5.7 2c-4.6 0-7.4-2.7-8.2-8.2l4.8-1.1a11 11 0 0 0 1.3 3.6 2.7 2.7 0 0 0 2.2 1 2.5 2.5 0 0 0 1.9-.7 3 3 0 0 0 .7-2 3.6 3.6 0 0 0-.2-1.1 3.1 3.1 0 0 0-.5-1 6 6 0 0 0-1.1-1.2 16.3 16.3 0 0 0-1.8-1.4l-3.3-2.7a14.1 14.1 0 0 1-2.1-2.3 8.4 8.4 0 0 1-1-2.2 6.9 6.9 0 0 1-.4-2.5 7.1 7.1 0 0 1 2.1-5.3 8.2 8.2 0 0 1 5.6-2c4.4 0 6.9 2.4 7.6 7.1zM174.6 12.4a13.7 13.7 0 0 1 3.1-2.7 5.4 5.4 0 0 1 2.8-.8c2.1 0 3.3 1.2 3.6 3.5a14.3 14.3 0 0 1 3.2-2.8 5.4 5.4 0 0 1 2.9-.7 3.2 3.2 0 0 1 2.8 1.3 4.2 4.2 0 0 1 .8 1.8 32.4 32.4 0 0 1 .1 3.6v22h-5.1V16.8c0-.9-.1-1.4-.1-1.7a1.5 1.5 0 0 0-.1-.7 1 1 0 0 0-1.1-.8c-1 0-2.1.8-3.2 2.4v21.6h-5.2V16.8a6.7 6.7 0 0 0-.1-1.7 1.5 1.5 0 0 0-.1-.7 1 1 0 0 0-1.1-.8c-1 0-2.1.8-3.2 2.4v21.6h-5.2V9.3h5.2zM208.7 37.6a2.9 2.9 0 0 1-.2-.9 2 2 0 0 0-.1-.7 2 2 0 0 0-.1-.7v-.9c-2.1 2.4-4.1 3.6-5.9 3.6a3.9 3.9 0 0 1-3.4-1.8 8.7 8.7 0 0 1-1.2-4.9 11.5 11.5 0 0 1 .4-3.3 10 10 0 0 1 1.6-2.8 18.1 18.1 0 0 1 3.2-2.7 59.2 59.2 0 0 1 5.1-3.2v-1.8a7 7 0 0 0-.4-3.1 1.8 1.8 0 0 0-1.7-.8 1.9 1.9 0 0 0-1.7.9 6.6 6.6 0 0 0-.7 3h-5.2a10 10 0 0 1 2.4-6.3 7.5 7.5 0 0 1 5.7-2.3 8.3 8.3 0 0 1 3.2.6 5.7 5.7 0 0 1 2.2 1.9 5.3 5.3 0 0 1 1.1 2.4 21.2 21.2 0 0 1 .3 4.2v9.4c0 1.6 0 2.9.1 3.9v2.6a9 9 0 0 0 .2 1.8 13.7 13.7 0 0 0 .2 1.9zm-.6-14.4a15.2 15.2 0 0 0-3.9 3.4 6 6 0 0 0-1.1 3.7 4.3 4.3 0 0 0 .4 2.2 1.7 1.7 0 0 0 1.3.8c1.2 0 2.3-.9 3.3-2.6zM228 37.6h-5.8V5h-6V-.4h17.9V5H228zM249.6 37.6h-5.2v-3l-1.7 1.6a4.9 4.9 0 0 1-1.4 1.1 7.5 7.5 0 0 1-1.3.6h-1.4a3.4 3.4 0 0 1-2.9-1.3 3.6 3.6 0 0 1-.7-1.8 26.1 26.1 0 0 1-.2-3.5v-22h5.2v22.5a1.4 1.4 0 0 0 .2.7.9.9 0 0 0 1 .9c1 0 2.1-.8 3.2-2.4V9.3h5.2zM259.2 12a13.5 13.5 0 0 1 2.6-2.4 5 5 0 0 1 2.7-.7 3.9 3.9 0 0 1 3.7 2.3 4.9 4.9 0 0 1 .4 1.1l.3 1.3a9.7 9.7 0 0 1 .1 1.8 16.3 16.3 0 0 1 .1 2.4v11.3a18.5 18.5 0 0 1-.1 2.5 9.1 9.1 0 0 1-.1 1.7l-.3 1.3a3.6 3.6 0 0 1-.4 1.1 3.8 3.8 0 0 1-3.7 2.3 5 5 0 0 1-2.7-.7 13.5 13.5 0 0 1-2.6-2.4v2.7H254v-38h5.2zm0 20.1a4.1 4.1 0 0 0 2.5 1.3 1.8 1.8 0 0 0 1.8-1.1 2 2 0 0 0 .3-1.1 9.3 9.3 0 0 0 .1-2V17.7a9.8 9.8 0 0 0-.1-2 2 2 0 0 0-.3-1.1 1.7 1.7 0 0 0-1.8-1 3.9 3.9 0 0 0-2.5 1.2zM278.2 24.4v5c0 2.6.9 3.9 2.5 3.9s2.4-1.1 2.4-3.2v-2.3h5.3v1.3a15.6 15.6 0 0 1-.3 3.5 6.7 6.7 0 0 1-3.7 4.6 8.1 8.1 0 0 1-7 0 6.4 6.4 0 0 1-2.7-2.1 8.4 8.4 0 0 1-1.3-2.7 21.7 21.7 0 0 1-.3-4v-9.9a21.7 21.7 0 0 1 .3-4 8.4 8.4 0 0 1 1.3-2.7 6.1 6.1 0 0 1 2.6-2.1 8.2 8.2 0 0 1 3.5-.8 8.1 8.1 0 0 1 3.4.8 7.5 7.5 0 0 1 2.6 2.1 6.6 6.6 0 0 1 1.2 2.7 14.9 14.9 0 0 1 .4 4v5.9zm5-6.9a5.5 5.5 0 0 0-.6-2.9 1.9 1.9 0 0 0-1.8-1c-1.7 0-2.6 1.3-2.6 3.9v2.6h5z" fill="#fff"/><path d="M53.7 5.6A6.8 6.8 0 0 0 48.8.8C44.5-.4 27.2-.4 27.2-.4S10.2-.4 5.9.7A7.5 7.5 0 0 0 .6 5.6C-.6 9.9-.5 18.8-.5 18.8S-.6 27.7.6 32a7.3 7.3 0 0 0 5.3 4.9c4.3 1.2 21.3 1.1 21.3 1.1s17 .1 21.3-1.1a7.5 7.5 0 0 0 5.3-4.9c1.1-4.2 1.1-13.2 1.1-13.2s0-8.9-1.2-13.2z" fill="red"/><path fill="#fff" d="M21.9 27.3l13.8-8.5-13.8-8.5v17z"/></svg>